<svg xmlns="http://www.w3.org/2000/svg" viewBox="0 0 272.79 232.45"><defs><style>.cls-1{fill:#020202;}.cls-2{fill:#fbf80b;}.cls-3{fill:#044dae;}.cls-4{fill:#98b4db;}.cls-5{fill:#97b4da;}.cls-6{fill:#fcf90e;}.cls-7{fill:#0a51af;}.cls-8{fill:#fcf913;}.cls-9{fill:#0d53b1;}.cls-10{fill:#0a50af;}.cls-11{fill:#0950af;}.cls-12{fill:#fcf912;}.cls-13{fill:#0e53b1;}.cls-14{fill:#0f54b1;}.cls-15{fill:#fefefe;}.cls-16{fill:#1055a2;}.cls-17{fill:#246394;}.cls-18{fill:#185a9d;}.cls-19{fill:#0d53a4;}.cls-20{fill:#206097;}.cls-21{fill:#195b9c;}.cls-22{fill:#004aac;}.cls-23{fill:#eff011;}</style></defs><g id="Layer_2" data-name="Layer 2"><g id="Layer_1-2" data-name="Layer 1"><path class="cls-1" d="M168,138.33l7.05,8.42-7,5.74c-9.44,7.75-19.69,13.86-31.82,16.36a102.32,102.32,0,0,1-32.32,1.63c-19.32-2.16-35.9-10-48.62-24.91-17.25-20.18-22-44.18-19.91-69.95.45-5.68,1.66-11.31,2.52-17a.26.26,0,0,0,.14-.36l.61-1.84c4-10.83,8.81-21.12,16.47-29.92C67.65,12.16,83.54,4,102.11,1.19,117.35-1.15,132.45-.19,147,5.42a74.69,74.69,0,0,1,24.84,15.77l-6,9c-4.81,5.23-6.09,5.37-12.2,1.29-.11-.07-.2-.16-.3-.23-18.28-12.73-38.11-14.75-58.75-7.54-14.16,4.94-24.3,14.78-29.9,29l0,0L64,54.27c-4.67,9.65-5.85,20-6,30.54-.29,16.69,3.41,32.25,13.63,45.71,12.94,17,30.92,21.93,51.33,20.86a54.7,54.7,0,0,0,34.23-13.95,31.32,31.32,0,0,1,3.71-2.45l6.31,2.64.92.72Z"/><path class="cls-2" d="M167.2,137.62,160.89,135c-6-.9-12-2.33-18-2.62-13.15-.61-23.25-10.6-23.36-23.85-.06-6.25,0-12.49,0-18.74A24,24,0,0,1,143,65.55q24.67-.28,49.37,0C206,65.71,216,76.08,216.06,89.79c0,6,0,12,0,18,0,13.94-9.87,24.07-23.8,24.49-.6,0-1.2.11-2.19.21v20.41c-4.06-3.4-7.32-6.65-11.08-9.14-3.37-2.23-7.29-3.65-11-5.42h.09Zm-37.77-34,1.19.24,1-5.7c1,2.08,1.77,3.54,3,5.91L138,97.33c.16,2.5.28,4.46.4,6.43l1.06-.05V93.23c-4.15,0-2.6,4.66-4.82,6.17-3.58-5.89-3.58-5.89-5.19-5.72Zm24.95.59.65-.66V93.27l-1.09-.16c-.3,1.92-.6,3.85-.92,5.88l-4.81-6.18-.57.76V103.8l1.13,0c.21-1.89.41-3.78.65-5.94Zm16.68-11a5,5,0,0,0-5.12,5.22c-.07,3.27,2.09,5.55,5.21,5.49a5.37,5.37,0,0,0-.09-10.71ZM158,93.31c.27,3.79-.22,7.19.3,10.49l1.34,0c.19-1.36.37-2.72.56-4.08l.88.69c1.31-1.51,3.88-3.2,3.7-4.5C164.26,92.33,161,93.37,158,93.31Zm44.07,1.32L202,93.51h-6.59v9.91H202l.1-1a24.43,24.43,0,0,1-3.55-.45c-.55-.15-1-.85-1.41-1.3.47-.42.89-1.08,1.43-1.23a20.36,20.36,0,0,1,3.23-.39l-.07-1a17,17,0,0,1-2.68-.38,9.25,9.25,0,0,1-1.92-1.14,8.11,8.11,0,0,1,2-1.5A12.86,12.86,0,0,1,202.07,94.63Zm-22,.64h3.67l.21-1.15c-1.37-.29-2.78-.9-4.1-.73-.77.1-2.09,1.65-1.94,2.19.36,1.23,1.46,2.26,2.3,3.34.13.18.5.18.64.35.51.69,1,1.42,1.44,2.13a20.79,20.79,0,0,1-2.85-.07,9.85,9.85,0,0,1-2-.76l-.57,1.33c1.5.64,3,1.71,4.5,1.77,1,0,3.06-1.89,3-2C183.08,99.55,181.61,97.55,180,95.27Zm10.46.18,3.28-1.14-.14-.61H185.4l-.06.73,2.68.82c1.51,2.73-.88,6.21,2.46,8.37Zm15.7-2.12H205v10.47l5.83-.3,0-1.08-4.67-.74Zm-63.24,10.33h.88V93.33l-.88,0Z"/><path class="cls-3" d="M115.61,107c-7.84-4.32-12.69-10.18-13.24-18.47a214.2,214.2,0,0,1,0-25.84c.36-6.55,4-11.72,9.34-15.51a8.39,8.39,0,0,1,4.57-1c22.31-.06,44.63.06,66.94-.13C187,46,189.92,47.15,192,50c2.54,3.56,4.59,7.47,7.11,11.66-18.8,0-36.45.28-54.08-.08-16.43-.33-30.36,12.94-29.41,29.37C115.86,96,115.61,101.16,115.61,107Z"/><path class="cls-4" d="M37.91,58.66c-.86,5.65-2.07,11.28-2.52,17-2.07,25.77,2.66,49.77,19.91,69.95,12.72,14.88,29.3,22.75,48.62,24.91a102.32,102.32,0,0,0,32.32-1.63c12.13-2.5,22.38-8.61,31.82-16.36.52,1.11,1.05,2.21,1.67,3.52a51.89,51.89,0,0,1-17.32,14.38c-29.47,15.18-58.92,15.22-87.33-2.44-18-11.2-27.6-28.75-32.13-49.07a102.68,102.68,0,0,1,2.87-56.41A25.34,25.34,0,0,1,37.91,58.66Z"/><path class="cls-5" d="M64.72,52.67c5.6-14.17,15.74-24,29.9-28.95,20.64-7.21,40.47-5.19,58.75,7.54.1.07.19.16.3.23,6.11,4.08,7.39,3.94,12.2-1.29.14,1,.73,2.21.33,2.83-1.88,2.94-4,5.73-6.08,8.51-2.43,3.2-4.37,3.43-8.06,1.47-6.79-3.6-13.31-8.06-20.51-10.45-21.82-7.27-50-2.19-65.14,18.8A7.69,7.69,0,0,1,64.72,52.67Z"/><path class="cls-6" d="M210.31,204.5c6.3-.37,6.29-.37,8.3,4.95,1.7,4.53,3.41,9.05,5.42,14.35,2-5.22,3.71-9.73,5.41-14.24,2.05-5.46,2-5.47,8.17-5v27.25h-4.2V213.26l-.75-.17c-1.63,4.36-3.23,8.73-4.9,13.07-.68,1.77-.88,3.75-3.82,3.64-2.67-.11-2.9-1.78-3.54-3.49A69.13,69.13,0,0,0,215,214.4v17.43h-4.68Z"/><path class="cls-6" d="M272.79,231.9h-4.3V213.35l-.83-.19c-1.73,4.58-3.33,9.22-5.28,13.71a5.81,5.81,0,0,1-3.17,2.72c-2.12.77-3-.82-3.61-2.64a110.49,110.49,0,0,0-5.77-13.67v18.54l-4.4.23V204.8c6-1.18,6-1.18,8.08,4.33l5.52,14.7c2.05-5.42,3.82-10,5.54-14.67,2-5.37,2-5.38,8.22-4.41Z"/><path class="cls-7" d="M86.38,231.86H81.64V220.8h-12v11.08H64.81V204.57h4.7v11h12v-11h4.85Z"/><path class="cls-8" d="M204.8,218.28c0,8.38-5.3,14.06-13.13,14.16-8,.1-13.53-5.68-13.57-14.13S183.41,204,191.46,204,204.83,209.64,204.8,218.28Zm-5.26,0c0-6.07-2.89-9.63-7.93-9.69s-8.12,3.37-8.24,9.42,3.14,10.07,8.16,10S199.52,224.28,199.54,218.26Z"/><path class="cls-9" d="M93.83,231.84V204.48h18l.24,4.35H98.81v7h12.1v4.63h-12v6.87h13v4.54Z"/><path class="cls-10" d="M131.24,219.91c1.28,2.09,2.45,4,3.62,5.88l3.54,5.81c-3.74,1.2-6.1.32-7.57-3.22a31.53,31.53,0,0,0-3.73-6.46c-.7-1-2.09-1.43-4-2.63v12.5h-4.9V204.38c3.12,0,6.21-.14,9.28,0,4.54.26,7.61,2.5,8.59,6C137.15,214.14,135.9,216.73,131.24,219.91ZM123.37,209v7c5.9.27,8-.67,8.09-3.42C131.53,209.73,129,208.57,123.37,209Z"/><path class="cls-11" d="M25.24,211.9l-3.95,1.62c-4.46-6.32-10.54-5.67-13.8-2.56-3.57,3.4-3.36,11.39.26,14.7s9.35,2.32,13.32-2.88L25,224.21c-1.76,5.73-6.69,8.68-13.09,8-7-.71-11-5.07-11.79-12.67-.69-7.18,3-13.25,9.07-15C15.9,202.6,21.75,205.15,25.24,211.9Z"/><path class="cls-12" d="M175.46,224.66c-3.24,6.43-8.75,8.94-15.61,7.29-5.78-1.39-9.53-6.67-9.6-13.53-.06-7.07,3.66-12.58,9.49-14,6.79-1.67,12.4.87,15.67,7.26-2.11,1.31-3.64,2.6-6-.43-3.57-4.62-11.32-2.91-13.43,2.57-2.9,7.55,1.45,14.48,8.7,13.64a8.89,8.89,0,0,0,4.54-2.16C172,222.84,171.87,222.71,175.46,224.66Z"/><path class="cls-13" d="M46.81,221v10.86H42V204.07c4.34.36,8.79.31,13,1.22,3.46.74,5.17,3.74,5.22,7.35A7.29,7.29,0,0,1,54.42,220,70.11,70.11,0,0,1,46.81,221Zm.09-4.16A70.68,70.68,0,0,0,54.76,214c.39-.19.24-3-.27-3.25a60.47,60.47,0,0,0-7.59-2.29Z"/><path class="cls-14" d="M30,204.42h4.6v27.4H30Z"/><path class="cls-5" d="M64,54.27l.72-1.62Z"/><path class="cls-4" d="M38.66,56.46l-.61,1.84Z"/><path class="cls-15" d="M167.2,137.62l.92.72Z"/><path class="cls-16" d="M129.43,103.61V93.68c1.61-.17,1.61-.17,5.19,5.72,2.22-1.51.67-6.14,4.82-6.17v10.48l-1.06.05c-.12-2-.24-3.93-.4-6.43l-3.37,6.73c-1.2-2.37-1.93-3.83-3-5.91l-1,5.7Z"/><path class="cls-17" d="M154.38,104.2l-5-6.29c-.24,2.16-.44,4-.65,5.94l-1.13,0V93.57l.57-.76L153,99c.32-2,.62-4,.92-5.88l1.09.16v10.27Z"/><path class="cls-18" d="M171.06,93.15a5.37,5.37,0,0,1,.09,10.71c-3.12.06-5.28-2.22-5.21-5.49A5,5,0,0,1,171.06,93.15Zm4.25,5.57c-1.8-1.73-2.91-3.61-4.05-3.63s-2.66,1.81-3,3.12c-.58,2,.4,4,2.76,3.81C172.25,101.89,173.39,100.25,175.31,98.72Z"/><path class="cls-16" d="M158,93.31c3,.06,6.26-1,6.78,2.57.18,1.3-2.39,3-3.7,4.5l-.88-.69c-.19,1.36-.37,2.72-.56,4.08l-1.34,0C157.78,100.5,158.27,97.1,158,93.31Z"/><path class="cls-19" d="M202.07,94.63a12.86,12.86,0,0,0-2.94.36,8.11,8.11,0,0,0-2,1.5,9.25,9.25,0,0,0,1.92,1.14,17,17,0,0,0,2.68.38l.07,1a20.36,20.36,0,0,0-3.23.39c-.54.15-1,.81-1.43,1.23.46.45.86,1.15,1.41,1.3a24.43,24.43,0,0,0,3.55.45l-.1,1h-6.64V93.51H202Z"/><path class="cls-20" d="M180,95.27c1.59,2.28,3.06,4.28,4.29,6.41.06.1-2,2-3,2-1.53-.06-3-1.13-4.5-1.77l.57-1.33a9.85,9.85,0,0,0,2,.76,20.79,20.79,0,0,0,2.85.07c-.48-.71-.93-1.44-1.44-2.13-.14-.17-.51-.17-.64-.35-.84-1.08-1.94-2.11-2.3-3.34-.15-.54,1.17-2.09,1.94-2.19,1.32-.17,2.73.44,4.1.73l-.21,1.15Z"/><path class="cls-21" d="M190.48,95.45v8.17c-3.34-2.16-.95-5.64-2.46-8.37l-2.68-.82.06-.73h8.22l.14.61Z"/><path class="cls-22" d="M206.18,93.33v8.36l4.67.74,0,1.08-5.83.3V93.34Z"/><path class="cls-22" d="M142.94,103.66V93.35l.88,0v10.32Z"/><path class="cls-23" d="M175.31,98.72c-1.92,1.53-3.06,3.17-4.34,3.3-2.36.23-3.34-1.86-2.76-3.81.39-1.31,2-3.14,3-3.12S173.51,97,175.31,98.72Z"/></g></g></svg>